# xmcd
#
# Track frame offsets:
#	150
#	14721
#	33208
#	62992
#
# Disc length: 1032 seconds
#
# Revision: 0
# Processed by: cddbd v1.5.1PL2 Copyright (c) Steve Scherf et al.
# Submitted via: audiograbber 1.83.01
#
DISCID=30040604
DTITLE=Kim Wilde - You Came (2006)
DYEAR=1900
DGENRE=
TTITLE0=You Came (2006)
TTITLE1=Maybe I'm Crazy
TTITLE2=You Came (2006)(Groovenut Remix)
TTITLE3=You Came (2006)(Old School Mix)
EXTD=
EXTT0=
EXTT1=
EXTT2=
EXTT3=
PLAYORDER=
